<svg id="Capa_1" enable-background="new 0 0 512 512" height="512" viewBox="0 0 512 512" width="512" xmlns="http://www.w3.org/2000/svg"><g><g id="_x3C_Group_x3E__30_"><path d="m496.785 483.961c-19.21 10.674-43.105 7.454-59.288-7.415-4.873-4.477-9.822-9.342-14.174-14.221l-49.744-56.889-1.639-4.612-8.347-6.584-21.446-24.046 8.812-22.492 31.177-11.177 24.013 21.417-4.458 14.943 15.693-4.922 73.507 65.561c13.736 12.251 17.141 31.609 9.907 47.361-.367.801-1.84 1.868-4.013 3.076z" fill="#b57f5f"/><path d="m347.86 302.25-12.233 32.234-23.468 3.468-26.659-41.893 20.467-20.468z" fill="#b57f5f"/><path d="m453.433 470.983-65.564-73.511-14.667 4.888 4.667-16.101-21.434-24.032-21.988 1.034 1.988 18.966 21.446 24.046 15.121-4.258-5.135 15.454 65.566 73.514c15.568 17.455 42.609 18.227 59.147 1.688 3.523-3.523 6.253-7.525 8.211-11.789-15.752 7.234-35.106 3.838-47.358-9.899z" fill="#9f6e50"/><path d="m275.5 306.059 26.659 41.893 18.902 1.098 3.012-23.012-31.551-35.352z" fill="#9f6e50"/><path d="m342.5 175.091c0-92.508-74.992-167.5-167.5-167.5-44.834 0-85.555 17.615-115.617 46.302-31.967 30.504-49.883 73.525-49.883 121.198 0 92.508 72.992 165.5 165.5 165.5 44.08 0 84.184-15.028 114.092-42.864 32.857-30.581 53.408-74.208 53.408-122.636z" fill="#b57f5f"/><path d="m190 327.591c-92.508 0-167.5-74.992-167.5-167.5 0-42.437 15.79-81.18 41.804-110.696-34.826 30.694-56.804 75.625-56.804 125.696 0 92.508 74.992 167.5 167.5 167.5 50.071 0 89.824-18.242 119.292-49.922-29.516 26.015-61.855 34.922-104.292 34.922z" fill="#9f6e50"/><path d="m382.846 335.817-32.646 32.645-18.899 13.143-26.301-31.28 13.733-18.948 29.837-29.837c5.077-5.077 13.308-5.077 18.385 0l15.891 15.891c5.076 5.078 5.076 13.309 0 18.386z" fill="#f7e365"/><path d="m324.073 326.038-22.623 22.623c-5.077 5.077-5.077 13.308 0 18.385l15.891 15.891c5.077 5.077 13.308 5.077 18.385 0l20.71-20.709z" fill="#f4d242"/><path d="m305 175.091c0-71.797-58.203-130-130-130-28.486 0-54.832 9.162-76.253 24.701-32.567 23.625-51.747 61.989-51.747 105.299 0 71.797 56.203 128 128 128 43.414 0 81.857-19.281 105.467-51.979 15.437-21.378 24.533-47.637 24.533-76.021z" fill="#f7f9fa"/><path d="m205 275.091c-71.797 0-130-58.203-130-130 0-28.241 9.009-54.375 24.305-75.695-32.881 23.591-54.305 62.139-54.305 105.695 0 71.797 58.203 130 130 130 43.556 0 82.105-21.424 105.695-54.305-21.32 15.296-47.454 24.305-75.695 24.305z" fill="#e9edf1"/><path d="m453.433 470.983-166.816-186.913" fill="none"/></g><g><path d="m511.98 462.52c-.382-13.391-6.099-25.676-16.096-34.593l-103.726-92.513c1.292-2.714 1.995-5.695 1.995-8.79 0-5.477-2.132-10.624-6.004-14.495l-15.892-15.893c-6.73-6.729-17.002-7.768-24.855-3.167l-28.607-18.205c8.007-11.532 14.655-24.036 19.738-37.342 1.478-3.87-.46-8.205-4.33-9.683-3.87-1.481-8.205.46-9.683 4.33-23.514 61.561-83.602 102.922-149.52 102.922-48.664 0-94.103-21.761-124.668-59.702-2.598-3.226-7.319-3.733-10.545-1.136-3.226 2.599-3.734 7.32-1.136 10.546 33.427 41.494 83.125 65.292 136.35 65.292 35.914 0 70.395-10.794 99.768-31.213l18.206 28.609c-1.833 3.113-2.832 6.659-2.832 10.366 0 5.477 2.133 10.624 6.005 14.495l15.891 15.893c3.997 3.996 9.246 5.993 14.495 5.993 3.009 0 6.011-.679 8.784-1.992l52.446 58.803c2.762 2.065 5.177 4.115 10.589.605 3.091-2.758 3.362-7.498.605-10.59l-25.778-28.902 38.887-38.887 73.834 65.852c13.502 11.514 15.125 34.941 1.377 48.245-12.102 12.74-35.928 13.135-48.247-1.377l-16.483-18.48c-2.757-3.091-7.498-3.361-10.589-.604s-3.362 7.498-.605 10.589l16.483 18.48c16.959 19.953 51.078 21.779 70.047 1.999 9.472-9.473 14.478-22.064 14.096-35.455zm-202.285-175.667 26.25 16.705-32.479 32.479-16.721-26.275c8.385-6.95 16.058-14.616 22.95-22.909zm12.949 90.781-15.891-15.893c-.918-1.339-3.339-4.365.634-8.411l46.487-46.487c1.364-.963 3.845-2.959 7.778-.001l15.891 15.893c.775 1.21 3.098 3.583 0 7.777l-47.121 47.12c-2.145 2.146-5.634 2.145-7.778.002zm40.535 23.311-16.431-18.423 35.683-35.683 18.423 16.431z"/><path d="m15 175.091c0-88.225 71.776-160 160-160s160 71.775 160 160c0 8.23-.63 16.494-1.873 24.562-.63 4.094 2.177 7.924 6.271 8.554 4.097.639 7.924-2.176 8.554-6.271 1.358-8.82 2.047-17.853 2.047-26.845 0-96.495-78.505-175-175-175s-174.999 78.505-174.999 175c0 27.703 6.287 54.203 18.687 78.764 1.709 2.673 5.415 5.499 10.075 3.315 3.698-1.867 5.182-6.378 3.315-10.075-11.331-22.445-17.077-46.671-17.077-72.004z"/><path d="m129.833 61.185c3.85-1.527 5.732-5.888 4.205-9.737s-5.887-5.732-9.738-4.204c-25.315 10.046-46.914 27.24-62.463 49.721-15.921 23.021-24.337 50.037-24.337 78.126 0 75.817 61.682 137.5 137.5 137.5s137.5-61.683 137.5-137.5-61.682-137.5-137.5-137.5c-5.067 0-10.179.279-15.191.83-4.118.452-7.089 4.157-6.636 8.274.452 4.116 4.15 7.086 8.274 6.636 4.471-.491 9.031-.74 13.553-.74 67.547 0 122.5 54.953 122.5 122.5s-54.953 122.5-122.5 122.5-122.5-54.953-122.5-122.5c0-50.55 30.355-95.261 77.333-113.906z"/></g></g></svg>